<svg version="1.1" id="Layer_1" xmlns="http://www.w3.org/2000/svg" xmlns:xlink="http://www.w3.org/1999/xlink" x="0px" y="0px"
	 width="100%" viewBox="0 0 821 514" enable-background="new 0 0 821 514" xml:space="preserve">
<path fill="#F7EEE7" opacity="1.000000" stroke="none" 
	d="
M1.222272,7.444513 
	C1.000000,6.250000 1.000000,5.500000 1.000000,4.375000 
	C2.287914,2.303541 4.077087,1.886547 6.564750,2.007141 
	C276.201324,1.999274 545.351318,1.999302 815.003723,2.006881 
	C818.564087,1.901745 820.906738,2.692281 820.976318,6.856202 
	C821.010986,174.075302 820.995728,340.792267 820.993042,508.011536 
	C821.098816,511.575836 820.297546,513.911133 816.135620,513.976562 
	C546.012512,514.001160 276.391876,514.015076 6.270085,513.963013 
	C3.393847,513.843628 2.151063,512.445007 1.544585,509.784424 
	C1.500768,344.152344 1.514174,179.020065 1.506346,13.887789 
	C1.506251,11.888244 1.570101,9.887488 1.222272,7.444513 
z"/>
<path fill="#E5E7EB" opacity="1.000000" stroke="none" 
	d="
M4.784662,513.315308 
	C275.033447,513.005066 545.063843,513.003174 815.553223,513.003052 
	C816.375549,513.395996 816.514587,513.855164 816.214966,514.691040 
	C545.971985,515.000000 275.943939,515.000000 5.457953,515.000000 
	C4.631367,514.611816 4.487410,514.152832 4.784662,513.315308 
z"/>
<path fill="#E5E7EB" opacity="1.000000" stroke="none" 
	d="
M816.222778,2.682250 
	C546.309998,2.995505 276.607788,2.996954 6.446606,2.996216 
	C5.624422,2.603139 5.485467,2.144241 5.785076,1.308759 
	C275.694702,1.000000 545.389404,1.000000 815.542053,1.000000 
	C816.369568,1.385637 816.513733,1.842540 816.222778,2.682250 
z"/>
<path fill="#E5E7EB" opacity="1.000000" stroke="none" 
	d="
M820.316284,509.227570 
	C820.003784,341.980347 820.002686,174.947250 820.003235,7.450539 
	C820.394226,6.617234 820.853882,6.475745 821.691895,6.781091 
	C822.000000,174.024902 822.000000,341.049805 822.000000,508.537354 
	C821.616211,509.376129 821.158813,509.523407 820.316284,509.227570 
z"/>
<path fill="#E5E7EB" opacity="1.000000" stroke="none" 
	d="
M1.000000,7.468657 
	C2.669937,8.666835 1.969333,10.786560 1.969699,12.703536 
	C2.001269,178.157318 1.997640,343.611084 1.995350,509.533691 
	C1.828085,510.175659 1.661944,510.348816 1.247901,510.260986 
	C1.000000,342.645782 1.000000,175.291550 1.000000,7.468657 
z"/>
<path fill="#F3F4F6" opacity="1.000000" stroke="none" 
	d="
M819.995972,509.386719 
	C820.448242,509.007935 820.891541,509.002441 821.667480,508.998474 
	C822.249207,512.597168 822.884155,516.515930 816.499512,515.000000 
	C816.001648,514.556580 816.003357,514.113220 816.008606,513.337341 
	C818.285767,513.085266 819.942566,512.410095 819.995972,509.386719 
z"/>
<path fill="#F3F4F6" opacity="1.000000" stroke="none" 
	d="
M822.000000,6.500528 
	C821.556580,6.998367 821.113220,6.996735 820.337341,6.991014 
	C820.085144,4.712791 819.408447,3.056836 816.385498,3.003185 
	C816.007141,2.550967 816.002075,2.107878 815.998535,1.332394 
	C819.597229,0.750735 823.515869,0.115895 822.000000,6.500528 
z"/>
<path fill="#F3F4F6" opacity="1.000000" stroke="none" 
	d="
M1.000000,510.499939 
	C1.000000,510.000000 1.497186,510.002319 1.745714,510.002411 
	C2.811039,510.914062 3.627835,511.825623 4.723835,512.872070 
	C5.004074,513.449829 5.005108,513.892700 5.003072,514.667786 
	C1.605894,515.727356 0.272907,514.393616 1.000000,510.499939 
z"/>
<path fill="#F3F4F6" opacity="1.000000" stroke="none" 
	d="
M5.500038,1.000000 
	C5.998450,1.443175 5.996901,1.886350 5.991484,2.661777 
	C4.567641,3.301739 3.147665,3.609447 1.363845,3.958578 
	C0.105714,0.029752 2.980598,1.085158 5.500038,1.000000 
z"/>
<path fill="#E7413C" opacity="1.000000" stroke="none" 
	d="
M456.361084,135.243744 
	C468.459717,131.418106 478.527985,134.648544 486.185181,144.875443 
	C487.836639,147.081131 489.485413,147.981613 492.250427,148.184509 
	C501.695007,148.877563 511.157562,149.525833 520.384094,152.011780 
	C538.066650,156.776047 543.943970,164.727554 546.896912,183.456833 
	C549.598633,200.592804 543.046326,214.418182 529.668579,225.159988 
	C512.181458,239.201462 491.613831,246.176514 470.039215,250.355988 
	C422.322937,259.599640 374.984344,257.844788 328.267914,244.080429 
	C313.970551,239.867889 300.592682,233.718124 289.091644,223.876709 
	C268.969391,206.658142 270.491180,182.395340 282.136841,163.315369 
	C287.104736,155.176117 295.841858,152.068787 304.811279,150.058578 
	C313.290039,148.158340 321.898926,147.312500 330.570557,147.120956 
	C332.830322,147.071045 334.488403,146.620071 336.073883,144.626801 
	C347.585175,130.154739 365.285248,129.767120 377.801514,143.545959 
	C382.630066,148.861603 383.396240,148.775467 387.209076,142.488541 
	C399.362427,122.448944 423.418701,122.726601 435.201843,143.042480 
	C438.571869,148.852966 439.699005,149.003479 443.989166,144.088181 
	C447.330658,140.259735 451.228119,137.227600 456.361084,135.243744 
z"/>
<path fill="#E7413C" opacity="1.000000" stroke="none" 
	d="
M537.461548,310.755432 
	C536.952271,302.067139 536.356445,293.598297 535.753906,285.129944 
	C535.718445,284.632080 535.599243,284.139923 535.568665,283.642059 
	C535.357483,280.201263 538.679688,274.303497 540.702759,274.956543 
	C544.181580,276.079437 546.564392,278.706696 546.880676,282.601959 
	C547.986206,296.216461 548.953857,309.842712 550.152039,323.448792 
	C550.455200,326.891541 549.272888,328.104187 545.890930,328.483398 
	C541.520813,328.973389 538.096802,327.710693 535.068420,324.683167 
	C528.775146,318.391876 524.088989,310.886932 519.014160,303.672119 
	C516.954041,300.743286 514.863403,297.835968 512.786682,294.918854 
	C512.365845,295.069550 511.945007,295.220276 511.524170,295.370972 
	C512.144104,303.541016 512.757812,311.711548 513.388550,319.880768 
	C513.542358,321.873627 513.592834,323.892822 513.969238,325.846313 
	C514.748779,329.892578 513.206421,331.208771 509.116638,331.719086 
	C504.244019,332.327118 502.764893,330.806519 502.468201,326.101746 
	C501.661072,313.303741 500.351593,300.538208 499.409210,287.747406 
	C499.202789,284.945740 497.464722,281.200500 500.983246,279.605042 
	C504.611359,277.959900 508.777985,277.550537 512.443726,280.174164 
	C515.871338,282.627319 518.536255,285.846680 520.958740,289.241058 
	C526.084717,296.423615 531.120789,303.670380 536.493896,311.052521 
	C536.793945,311.214264 537.218933,311.422272 537.218933,311.422272 
	C537.218933,311.422272 537.373474,310.974976 537.461548,310.755432 
z"/>
<path fill="#E7413C" opacity="1.000000" stroke="none" 
	d="
M164.349075,313.618896 
	C158.980164,313.403534 157.711838,311.369659 158.751236,306.262695 
	C161.302429,293.727692 162.979370,281.017090 165.313232,268.433685 
	C165.798996,265.814575 164.787292,261.636017 168.910233,261.121002 
	C173.077255,260.600525 177.280289,261.404053 180.201706,265.011841 
	C182.739883,268.146393 184.352600,271.829010 185.796631,275.545868 
	C188.563492,282.667633 191.174118,289.850067 193.858353,297.004028 
	C194.316162,298.224243 194.623611,299.542786 196.501221,300.815552 
	C197.708588,294.066254 198.867203,287.651825 199.998978,281.232666 
	C200.460785,278.613342 200.819351,275.975433 201.305038,273.360840 
	C202.026093,269.479218 204.882553,267.369446 208.243713,266.323669 
	C209.993607,265.779175 212.936188,272.392975 212.415543,275.524841 
	C211.134262,283.232239 209.810486,290.932526 208.499908,298.635040 
	C207.523895,304.371216 206.489746,310.098114 205.581406,315.844940 
	C205.012955,319.441467 203.227875,320.384735 199.640457,319.688568 
	C194.696136,318.729065 191.811264,315.697174 189.611649,311.554321 
	C184.759018,302.414734 181.759857,292.524017 177.932739,282.968567 
	C177.288849,281.360870 177.256561,279.358948 175.109787,278.122864 
	C173.332901,288.617920 171.587021,298.890472 169.858246,309.165924 
	C169.370224,312.066681 168.986267,315.036346 164.349075,313.618896 
z"/>
<path fill="#E7413C" opacity="1.000000" stroke="none" 
	d="
M492.737854,328.358582 
	C485.921906,335.923309 477.346100,335.321655 469.016724,333.648956 
	C461.539246,332.147339 457.870697,326.489838 456.648590,319.076508 
	C453.873016,302.239441 466.679657,290.442444 482.000702,295.794403 
	C484.904327,296.808685 487.443909,298.372528 489.291138,300.804901 
	C492.305664,304.774445 493.347382,309.439362 491.463806,313.971252 
	C489.825867,317.912231 485.552612,317.704224 481.899200,317.912842 
	C478.414276,318.111755 474.923859,318.212616 471.436279,318.366455 
	C467.873352,318.523590 468.037842,320.395599 469.725403,322.541138 
	C472.887848,326.561707 477.136871,326.454407 481.505341,325.134735 
	C482.909607,324.710510 484.172455,323.823883 485.507996,323.164978 
	C490.211578,320.844482 493.122986,322.756989 492.737854,328.358582 
z"/>
<path fill="#E7423D" opacity="1.000000" stroke="none" 
	d="
M248.715515,324.682190 
	C244.875214,326.421600 241.422348,326.507507 238.940338,322.929443 
	C237.976273,321.539642 237.346329,321.258514 235.897781,322.317596 
	C232.863525,324.536133 229.278839,324.344543 225.803329,323.964783 
	C219.673492,323.294952 216.089798,319.770569 215.606445,314.243073 
	C215.069382,308.101196 218.044128,303.338531 223.753082,301.492920 
	C227.916565,300.146912 232.239532,300.007172 236.586456,300.147614 
	C237.919006,300.190674 239.862015,301.187836 240.241760,298.905029 
	C240.571060,296.925354 239.519958,295.255066 237.723083,294.431641 
	C234.860825,293.119995 231.741699,293.272095 228.948303,294.360840 
	C225.623276,295.656769 222.146362,295.200012 221.367493,292.244385 
	C220.551666,289.148499 223.154861,286.480316 226.814209,285.738007 
	C233.229263,284.436646 239.427002,285.025757 245.230927,288.042450 
	C250.888687,290.983185 252.273712,296.274384 251.726685,302.048828 
	C251.021774,309.489838 249.858871,316.887451 248.715515,324.682190 
z"/>
<path fill="#E7413C" opacity="1.000000" stroke="none" 
	d="
M584.514160,324.776428 
	C583.115845,324.957489 582.105957,324.962708 581.131714,325.151672 
	C566.248779,328.038574 555.337158,318.949829 558.110046,300.095367 
	C559.405212,291.288544 567.932312,285.607544 578.252869,286.023529 
	C586.522522,286.356842 592.302795,291.511749 593.117615,299.280060 
	C593.680603,304.647064 592.050354,307.048615 586.680725,308.004547 
	C581.942566,308.848053 577.150879,309.444672 572.359619,309.913757 
	C569.656982,310.178375 569.835144,311.325470 570.842102,313.147064 
	C572.928894,316.921936 578.555359,318.190674 583.768127,315.913788 
	C585.119934,315.323303 586.337219,314.408417 587.578979,313.586060 
	C590.111816,311.908691 593.219421,311.651825 594.715027,314.031250 
	C596.399353,316.710815 595.440796,319.927277 592.232788,321.574219 
	C589.881958,322.781067 587.363098,323.660614 584.514160,324.776428 
z"/>
<path fill="#E7413C" opacity="1.000000" stroke="none" 
	d="
M352.511688,302.792236 
	C355.626740,312.714783 352.800964,322.321991 352.767975,331.907959 
	C352.759186,334.470032 345.566956,335.394012 343.609589,332.634613 
	C341.548004,329.728241 340.449615,330.879272 338.253113,332.128265 
	C333.277344,334.957458 327.955688,335.026031 323.117737,331.857117 
	C319.066681,329.203674 318.287262,324.927948 318.915253,320.348083 
	C319.615753,315.239685 322.966217,312.547272 327.537964,311.071320 
	C331.206543,309.886963 335.055145,309.777374 338.855652,309.391907 
	C340.208649,309.254700 342.192993,309.969086 342.330994,307.678406 
	C342.437103,305.917175 341.559113,304.389923 339.856720,303.679932 
	C336.960144,302.471802 333.977417,302.420166 331.184082,303.914795 
	C327.964203,305.637665 324.171661,305.625031 323.040009,302.487366 
	C321.849976,299.187866 324.533936,296.508179 328.320557,295.424805 
	C337.921234,292.678070 347.760284,295.449371 352.511688,302.792236 
z"/>
<path fill="#E7413C" opacity="1.000000" stroke="none" 
	d="
M430.318909,335.006470 
	C427.044769,335.078796 425.313843,333.447357 423.958130,331.164093 
	C419.349213,323.401855 415.875031,315.173431 413.275574,306.521179 
	C411.839539,301.741241 414.585175,299.262268 417.854736,297.141052 
	C419.907837,295.809052 424.611176,299.785339 425.239380,303.489288 
	C426.218933,309.264771 427.741638,314.851807 430.202850,320.162384 
	C430.814026,321.481171 431.118073,323.045166 432.667816,324.020233 
	C436.417725,317.896637 438.071136,311.146942 438.921051,304.191498 
	C439.178040,302.088440 439.517395,300.144928 441.279999,298.964264 
	C442.770142,297.966095 443.810211,295.105347 446.113098,296.670715 
	C448.318085,298.169525 451.590240,299.443695 451.069946,302.934723 
	C449.425964,313.965393 445.227600,324.041626 438.672211,333.038452 
	C436.819031,335.581848 433.554260,334.995697 430.318909,335.006470 
z"/>
<path fill="#E7413C" opacity="1.000000" stroke="none" 
	d="
M615.594238,312.070038 
	C617.495911,311.315948 618.727173,310.327179 618.471252,308.615540 
	C618.180420,306.670715 616.495361,306.177521 614.797852,305.775024 
	C611.572876,305.010284 608.234070,304.485107 605.188416,303.252808 
	C598.220642,300.433502 596.331238,290.935394 601.901245,285.921478 
	C607.099731,281.241913 613.476074,279.575470 620.475220,280.890808 
	C623.917908,281.537811 625.562866,284.180634 624.831726,287.053162 
	C624.100464,289.925964 621.248901,290.538422 618.301758,289.452850 
	C617.240662,289.062012 616.034790,288.901245 614.898193,288.914215 
	C612.829163,288.937744 610.577271,289.380066 610.198120,291.722687 
	C609.760742,294.424622 612.212219,294.751801 614.137390,295.246887 
	C616.874512,295.950836 619.669556,296.462860 622.359070,297.312775 
	C630.333252,299.832855 632.648438,309.274689 626.842102,315.317444 
	C622.181702,320.167572 609.967651,322.608307 603.918762,319.835327 
	C602.276184,319.082275 600.162354,318.250824 601.899170,315.877075 
	C603.294128,313.970581 602.743774,309.386353 607.351379,311.490448 
	C609.894409,312.651733 612.488770,312.705658 615.594238,312.070038 
z"/>
<path fill="#E7413C" opacity="1.000000" stroke="none" 
	d="
M648.008789,275.896912 
	C651.196899,275.680756 654.695801,272.924469 655.738464,278.370758 
	C656.396790,281.809509 655.894531,283.963287 651.898621,283.966705 
	C649.043335,283.969147 648.142212,285.236115 648.770691,288.079041 
	C649.667053,292.133423 650.196411,296.267456 650.980591,300.348663 
	C651.561096,303.369385 653.477295,305.627319 656.530334,304.525330 
	C661.434631,302.755066 661.435730,307.062561 662.475220,309.162903 
	C663.853027,311.946808 660.547668,312.129700 658.989380,312.753906 
	C647.808716,317.232269 641.434937,313.699188 639.229309,301.944397 
	C638.708191,299.167145 638.464294,296.330994 637.823181,293.584930 
	C637.084473,290.420654 638.010986,285.972626 631.889771,286.994049 
	C629.404724,287.408661 630.239685,283.899475 629.659058,282.157318 
	C629.098328,280.474579 629.597412,279.105927 631.599060,278.948486 
	C634.873718,278.690918 635.207092,277.042419 634.418091,274.207581 
	C633.293945,270.168732 635.856140,267.448395 638.824524,265.572510 
	C640.548706,264.482910 645.259460,269.038910 645.944214,272.053131 
	C646.258423,273.436066 645.797485,275.158569 648.008789,275.896912 
z"/>
<path fill="#E7413C" opacity="1.000000" stroke="none" 
	d="
M386.513977,329.246704 
	C388.604340,333.246429 387.481415,334.830841 383.417877,335.555481 
	C371.753235,337.635681 366.026306,333.124451 366.108765,321.464478 
	C366.131134,318.300385 366.243988,315.136902 366.322388,311.973297 
	C366.402161,308.752686 367.532898,305.269501 362.107758,304.875793 
	C359.467102,304.684143 360.731598,301.617462 360.638947,299.790100 
	C360.558441,298.201874 360.993652,296.632782 363.090851,296.874207 
	C366.247040,297.237518 367.357941,295.818054 366.954742,292.852417 
	C366.456604,289.187988 369.094635,287.419830 371.543243,285.768463 
	C373.782776,284.258148 378.736694,288.214935 378.546143,291.917084 
	C378.331238,296.091217 379.589020,297.528534 383.734497,297.190552 
	C387.253448,296.903687 386.899963,299.686615 386.934662,302.070312 
	C386.972839,304.692719 386.099121,306.437012 383.201111,305.944580 
	C378.909546,305.215363 377.544586,307.012421 378.013306,311.092621 
	C378.258392,313.226074 378.046295,315.418762 377.963837,317.581787 
	C377.771759,322.622284 377.322266,327.787170 385.002289,327.024170 
	C385.384155,326.986237 385.894043,328.236816 386.513977,329.246704 
z"/>
<path fill="#E7423D" opacity="1.000000" stroke="none" 
	d="
M301.145172,293.656494 
	C302.452423,295.395721 303.513245,296.863495 304.543121,298.288452 
	C305.728027,297.245270 306.944122,295.850769 308.448273,294.923462 
	C310.937378,293.388855 314.305359,292.125977 316.311829,294.358185 
	C318.264404,296.530426 316.951782,300.092834 316.359375,302.958771 
	C315.973572,304.825165 314.174744,303.871613 312.961151,303.823700 
	C306.277313,303.559753 303.636200,305.738586 302.859283,312.552002 
	C302.293701,317.512268 301.814758,322.493713 301.596344,327.478821 
	C301.409729,331.736633 298.594696,331.318420 296.025726,330.723846 
	C293.589722,330.160095 289.375458,331.954620 289.837341,326.647278 
	C290.660004,317.194153 291.209808,307.716034 292.126129,298.272858 
	C292.567993,293.719360 297.151154,291.353149 301.145172,293.656494 
z"/>
<path fill="#E7423D" opacity="1.000000" stroke="none" 
	d="
M283.078613,291.040466 
	C290.353729,291.349365 286.467041,296.312134 286.767822,299.214630 
	C287.164459,303.042084 284.505585,301.545471 282.441315,301.197083 
	C277.661957,300.390564 273.906067,303.206390 273.010132,308.528473 
	C272.157410,313.593781 271.363556,318.722870 271.229248,323.841888 
	C271.053253,330.548401 266.452209,327.605164 263.402466,327.782410 
	C259.364197,328.017090 259.081268,325.592987 259.518951,322.213074 
	C260.562439,314.154388 261.484039,306.062195 261.959076,297.954529 
	C262.223450,293.441833 264.474426,290.054077 268.223389,289.472809 
	C271.923523,288.899048 273.433746,292.956451 274.497131,296.455536 
	C276.632874,293.510773 279.135040,291.457001 283.078613,291.040466 
z"/>
<path fill="#E7423D" opacity="1.000000" stroke="none" 
	d="
M394.334290,310.031860 
	C394.357391,307.872345 394.374359,306.206329 394.393463,304.540344 
	C394.474976,297.421356 396.694275,295.815796 403.846375,297.431793 
	C405.794006,297.871826 406.131256,298.986847 406.121033,300.642151 
	C406.056274,311.138245 405.995392,321.634521 405.991241,332.130737 
	C405.990417,334.205109 405.211456,335.237244 403.057281,335.151550 
	C401.393921,335.085388 399.715729,335.026794 398.061768,335.169647 
	C394.920105,335.440948 394.035858,333.951965 394.118927,331.016296 
	C394.312164,324.189484 394.273743,317.356079 394.334290,310.031860 
z"/>
<path fill="#EC6F6E" opacity="1.000000" stroke="none" 
	d="
M793.261475,14.254326 
	C798.264404,12.348389 803.745239,11.554186 809.054077,12.916475 
	C812.986511,13.925563 814.107971,20.694977 811.207153,24.987928 
	C809.557617,27.429096 807.205383,29.412193 805.063293,31.492111 
	C804.524963,32.014801 803.594360,32.313057 802.815491,32.379234 
	C797.868408,32.799557 795.241943,29.467901 793.049866,25.862856 
	C791.001343,22.493948 788.749390,18.915775 792.656250,15.019362 
	C795.151001,17.543972 794.891418,21.298214 797.374756,23.716871 
	C799.124207,25.420797 800.656799,27.976696 803.556702,26.248726 
	C806.511108,24.488274 808.534973,21.847374 808.289062,18.145193 
	C808.186523,16.601570 806.838867,15.409970 805.544495,16.233238 
	C800.907288,19.182570 797.473572,15.327542 793.261475,14.254326 
z"/>
<path fill="#FFFBFB" opacity="1.000000" stroke="none" 
	d="
M793.003418,14.266191 
	C795.664673,14.356328 798.658508,13.026626 800.802673,15.925174 
	C801.957458,17.486174 802.737122,15.920309 803.496765,15.170085 
	C805.020325,13.665344 806.748047,13.623411 808.485107,14.615987 
	C810.386963,15.702747 810.472046,17.569727 810.109253,19.438559 
	C809.291138,23.653084 806.411011,26.372078 803.083191,28.680988 
	C801.779724,29.585415 800.570862,28.951906 799.488403,28.017736 
	C795.739746,24.782495 792.571045,21.253477 793.070801,15.379707 
	C793.008850,14.977027 793.007874,14.503109 793.003418,14.266191 
z"/>
<path fill="#E84D48" opacity="1.000000" stroke="none" 
	d="
M359.132172,385.757690 
	C357.239258,384.606049 356.797424,386.558014 355.927551,387.266907 
	C353.354523,389.363831 350.414398,389.404236 347.435028,388.756073 
	C346.124634,388.470978 345.110229,387.488739 345.025818,385.933289 
	C344.966583,384.841980 345.371887,383.936951 346.337250,383.450989 
	C348.200043,382.513245 347.843353,384.599884 348.588104,385.197113 
	C349.905029,386.253235 351.431854,386.067413 352.867523,385.779205 
	C353.569305,385.638306 354.562958,384.961365 354.684143,384.374237 
	C354.876617,383.441650 353.844574,382.962341 353.007904,383.024658 
	C345.695648,383.569092 347.129700,377.600006 346.345581,373.675323 
	C345.926971,371.580261 347.528015,369.560608 349.758636,368.679169 
	C352.148468,367.734802 355.291840,366.991180 356.771515,368.984406 
	C358.939209,371.904541 356.120148,374.536987 354.371216,376.834717 
	C353.685028,377.736298 352.225677,378.049377 350.510345,378.949646 
	C354.611298,379.691467 357.811951,380.872772 358.650635,385.123810 
	C359.038849,385.132721 359.251099,385.554016 359.132172,385.757690 
z"/>
<path fill="#E84D48" opacity="1.000000" stroke="none" 
	d="
M409.441895,382.540253 
	C408.570190,387.943390 404.585419,390.401337 399.785156,388.902222 
	C398.453522,388.486328 397.350830,387.762817 397.071808,386.282166 
	C396.875458,385.240295 397.143524,384.270874 398.057770,383.634247 
	C400.196747,382.144958 399.848724,384.738556 400.722687,385.320862 
	C401.955200,386.142090 403.269867,385.982178 404.577393,385.858063 
	C405.584045,385.762482 406.668427,385.383759 406.676300,384.200928 
	C406.683228,383.164734 405.608337,383.102051 404.803040,382.976593 
	C402.844971,382.671539 400.066620,382.830322 399.381470,381.149963 
	C398.376831,378.686096 398.181976,375.672485 398.433868,372.966827 
	C398.819397,368.824890 405.928131,365.872192 408.656464,368.874695 
	C411.264343,371.744659 408.009613,374.375580 406.473816,376.734375 
	C405.850922,377.691071 404.241180,378.005280 403.007263,378.650055 
	C404.820648,380.450653 408.210724,379.320709 409.441895,382.540253 
z"/>
<path fill="#E84B46" opacity="1.000000" stroke="none" 
	d="
M359.015961,386.351562 
	C359.013245,385.961395 359.026154,385.546875 359.032501,385.339783 
	C359.548676,383.561554 360.231567,381.899048 361.858704,384.128845 
	C364.195160,387.330627 366.322449,386.244141 369.116425,384.171478 
	C368.173889,383.641052 367.671021,383.200531 367.094482,383.058075 
	C361.696259,381.724121 359.134369,378.015198 360.108215,372.859741 
	C360.871185,368.820862 367.339386,366.313812 370.616302,368.786835 
	C372.121185,369.922485 370.470490,375.288666 367.940948,377.028076 
	C366.923401,377.727783 365.647919,378.052429 364.316833,378.621704 
	C364.894745,378.980774 365.272552,379.355560 365.716980,379.468689 
	C368.396088,380.150818 371.887848,380.148712 371.182098,384.307281 
	C370.530243,388.148010 367.435913,389.008972 364.030029,389.052490 
	C361.999969,389.078430 359.981781,389.045013 359.015961,386.351562 
z"/>
<path fill="#E84B46" opacity="1.000000" stroke="none" 
	d="
M436.891296,378.985138 
	C434.650421,381.169800 432.491821,382.313293 430.261292,379.787415 
	C428.812378,378.146667 428.325989,379.930725 427.537170,380.360260 
	C425.675873,381.373810 423.753601,381.709442 423.114227,379.330109 
	C422.307983,376.329742 422.294312,373.141357 420.067993,370.596893 
	C419.512482,369.962006 420.151306,369.008179 420.867218,368.499603 
	C421.859589,367.794556 422.794495,368.126923 423.506134,368.942017 
	C424.780762,370.402069 424.879486,372.228241 425.055054,374.066589 
	C425.161469,375.180969 424.266479,377.106049 426.451416,377.102875 
	C428.444946,377.099976 429.329468,375.621582 429.355865,373.757874 
	C429.367126,372.961304 428.927032,372.168915 428.807159,371.357635 
	C428.612427,370.039917 429.599030,369.602325 430.587708,369.423126 
	C431.605591,369.238647 432.051483,370.014984 432.178894,370.894073 
	C432.296783,371.707733 432.287689,372.539703 432.337891,373.363373 
	C432.413635,374.606293 431.361023,376.096741 432.799713,377.001617 
	C433.313202,377.324585 434.526733,377.115448 435.070709,376.695618 
	C436.472687,375.613770 437.072052,374.096619 436.414001,372.297668 
	C436.188080,371.679993 435.785919,371.092010 435.710449,370.461029 
	C435.537323,369.013367 436.499634,368.315460 437.746521,368.146515 
	C439.292023,367.937134 439.791351,369.067108 439.809692,370.311768 
	C439.854919,373.383667 438.861176,376.160767 436.891296,378.985138 
z"/>
<path fill="#E84B46" opacity="1.000000" stroke="none" 
	d="
M314.311310,369.895081 
	C316.490112,367.986298 318.618164,367.096588 320.815765,368.902100 
	C322.889130,370.605560 322.689178,373.042877 322.024139,375.337158 
	C321.203369,378.168549 319.707458,380.521667 316.468475,380.987854 
	C310.871674,381.793304 309.596130,380.646790 310.191040,375.269409 
	C310.631409,371.288910 310.724152,367.337372 309.905884,363.397583 
	C309.623352,362.037262 308.511902,360.223938 311.019135,360.015472 
	C313.221802,359.832336 313.033691,361.802246 313.115234,363.224396 
	C313.247040,365.523315 313.226868,367.830933 313.287567,370.134430 
	C313.289276,370.199371 313.487152,370.318939 313.581635,370.308136 
	C313.738678,370.290192 313.886017,370.187073 314.311310,369.895081 
z"/>
<path fill="#E84B46" opacity="1.000000" stroke="none" 
	d="
M463.982697,380.505005 
	C461.348419,381.805267 459.122559,380.253632 456.800751,380.588318 
	C454.783020,380.879150 455.495422,379.220245 455.612976,378.178009 
	C456.210083,372.884155 456.917450,367.594788 455.250519,362.349548 
	C454.919281,361.307404 455.004608,360.345581 456.311218,360.033569 
	C457.779938,359.682831 458.671112,360.496918 458.752838,361.793091 
	C458.909088,364.271271 458.798248,366.766296 458.798248,369.783386 
	C462.031281,368.751892 465.589539,366.014832 467.505951,370.196259 
	C469.274658,374.055420 467.819458,377.679718 463.982697,380.505005 
z"/>
<path fill="#E7413C" opacity="1.000000" stroke="none" 
	d="
M407.365021,283.744873 
	C407.596466,288.625366 404.031464,291.188354 400.758606,291.855957 
	C397.515259,292.517517 394.867798,288.686340 393.638000,285.863251 
	C392.255585,282.689758 396.250000,281.473022 397.946167,279.460846 
	C399.207367,277.964722 400.792603,277.057281 402.593231,278.875122 
	C404.108643,280.404999 405.627319,281.931580 407.365021,283.744873 
z"/>
<path fill="#E94F4A" opacity="1.000000" stroke="none" 
	d="
M386.115387,369.836334 
	C388.552765,368.911865 390.469147,367.023376 392.926178,368.468140 
	C395.532745,370.000793 394.641266,372.406830 394.100739,374.686829 
	C393.867889,375.668915 394.021271,376.713318 394.800507,377.464905 
	C396.304291,378.915283 396.108398,380.203583 394.199799,380.786957 
	C392.394928,381.338654 391.461243,380.016785 391.130402,378.407715 
	C390.968506,377.620178 391.142212,376.766266 391.141296,375.942413 
	C391.139832,374.619202 392.689789,372.836884 390.523712,372.122375 
	C388.252930,371.373322 387.348602,373.254211 386.549683,374.944305 
	C386.338531,375.391083 386.229065,375.886383 386.013123,376.330322 
	C385.222717,377.955200 385.777618,381.246735 383.070801,380.593018 
	C380.837677,380.053711 382.902069,377.488495 382.745514,375.834106 
	C382.621216,374.520569 382.815704,373.169800 382.058777,371.986298 
	C381.359924,370.893616 380.251648,369.869537 381.951904,368.677124 
	C383.652435,367.484528 384.690002,368.466827 386.115387,369.836334 
z"/>
<path fill="#E84D48" opacity="1.000000" stroke="none" 
	d="
M443.559601,370.461609 
	C444.880188,369.087585 446.132599,368.298767 447.661499,368.076660 
	C449.376465,367.827545 450.992065,368.035339 452.153595,369.518280 
	C453.153412,370.794678 451.988220,378.818542 450.631104,379.684692 
	C448.232086,381.215790 445.516144,381.977020 443.299133,379.828918 
	C440.389374,377.009674 441.571289,373.781586 443.559601,370.461609 
z"/>
<path fill="#E84B46" opacity="1.000000" stroke="none" 
	d="
M509.117920,377.520874 
	C510.452515,377.122223 512.421509,376.483917 510.933350,378.451721 
	C508.880432,381.166382 505.581482,382.312805 502.652435,379.947632 
	C499.489655,377.393677 500.393066,373.910980 502.376617,371.025452 
	C504.337372,368.173126 507.280121,366.756622 510.493561,368.901276 
	C513.157104,370.678986 512.072571,372.875031 510.137909,374.672699 
	C508.558044,376.140717 506.398560,375.681244 504.254089,376.225830 
	C505.348724,378.506683 507.071014,378.064575 509.117920,377.520874 
z"/>
<path fill="#E94F4A" opacity="1.000000" stroke="none" 
	d="
M332.148285,370.694489 
	C335.100891,368.200867 338.135193,366.799255 341.415100,368.970795 
	C343.932617,370.637543 344.278381,373.292847 343.407745,376.069977 
	C342.234985,379.810883 339.427490,381.426422 335.767700,380.943146 
	C332.036774,380.450378 331.894012,377.519775 332.234070,374.473785 
	C332.357330,373.369751 332.090088,372.222137 332.148285,370.694489 
z"/>
<path fill="#E84B46" opacity="1.000000" stroke="none" 
	d="
M477.791016,380.156677 
	C476.500275,380.557709 475.547821,380.948730 474.582611,380.983246 
	C472.654968,381.052246 470.346252,380.489960 470.624054,378.341217 
	C470.941803,375.883423 472.998779,377.992828 474.270203,377.893402 
	C475.216492,377.819397 476.265442,378.231384 476.965820,377.098022 
	C476.725708,375.461700 475.185699,376.050690 474.266235,375.663971 
	C472.735535,375.020203 470.922485,374.757233 471.010101,372.531036 
	C471.091827,370.453552 472.350616,369.158783 474.182709,368.479126 
	C476.108673,367.764648 478.092163,367.585205 479.858063,368.952332 
	C480.409790,369.379486 480.539093,370.044342 480.185150,370.733948 
	C479.760101,371.562042 479.071747,372.054932 478.183624,371.822540 
	C476.991791,371.510651 475.852509,370.412384 474.658112,371.834747 
	C481.365723,375.181122 481.518555,375.543274 477.791016,380.156677 
z"/>
<path fill="#E94F4A" opacity="1.000000" stroke="none" 
	d="
M490.574585,370.821472 
	C491.986938,368.750549 492.151093,364.119568 496.330017,367.632324 
	C497.220062,368.380524 499.345947,367.472992 499.238068,369.518188 
	C499.136932,371.434906 497.393158,370.781738 496.243988,371.184692 
	C494.118866,371.929871 494.051208,375.694275 495.987366,377.274902 
	C496.869690,377.995209 499.095459,377.290802 498.587189,379.398285 
	C498.305206,380.567444 497.089752,381.022461 495.806946,381.038940 
	C493.959229,381.062683 492.424774,380.447723 492.060455,378.557312 
	C491.755463,376.974396 491.863312,375.291321 491.948486,373.660919 
	C492.007690,372.528900 491.554138,371.776611 490.574585,370.821472 
z"/>
<path fill="#E94F4A" opacity="1.000000" stroke="none" 
	d="
M325.218109,362.928497 
	C324.859680,361.246765 324.965576,360.113251 326.545715,359.951202 
	C328.007019,359.801270 328.674042,360.817444 328.796356,362.051514 
	C329.123596,365.353455 329.045868,368.649384 328.464264,371.937866 
	C328.127167,373.844055 327.354889,375.858246 328.890106,377.623993 
	C329.632690,378.478088 330.054840,379.351471 328.986267,380.122589 
	C328.372711,380.565399 327.457214,380.971405 326.771271,380.852783 
	C325.354401,380.607727 325.198120,379.278961 325.257751,378.118958 
	C325.444092,374.492554 325.802582,370.873779 325.930573,367.246277 
	C325.976135,365.955200 325.552368,364.647583 325.218109,362.928497 
z"/>
<path fill="#E94F4A" opacity="1.000000" stroke="none" 
	d="
M377.958923,372.230652 
	C377.885315,374.402313 376.870667,376.112518 378.122284,377.905334 
	C379.473572,379.840912 377.984955,380.663666 376.407562,380.893433 
	C374.668030,381.146790 374.110321,379.771179 374.167206,378.354462 
	C374.274170,375.690674 376.052917,373.085846 373.734467,370.356049 
	C373.014374,369.508209 374.649384,368.254944 375.801392,368.235291 
	C378.298340,368.192657 377.902771,370.208466 377.958923,372.230652 
z"/>
<path fill="#E84B46" opacity="1.000000" stroke="none" 
	d="
M484.070038,380.138672 
	C483.075104,376.650391 485.574768,373.323486 483.221436,370.152649 
	C482.627747,369.352692 484.092529,368.524597 485.024445,368.245422 
	C486.215668,367.888580 486.943359,368.615082 487.169922,369.707458 
	C487.828888,372.885132 486.104706,376.117401 487.716644,379.448700 
	C488.200806,380.449310 485.863708,381.386139 484.070038,380.138672 
z"/>
<path fill="#E94F4A" opacity="1.000000" stroke="none" 
	d="
M376.665588,361.303040 
	C378.770142,362.352722 378.705292,363.630524 377.286652,364.804535 
	C376.489380,365.464325 375.314941,365.441010 374.714355,364.446442 
	C373.621277,362.636292 374.780060,361.793732 376.665588,361.303040 
z"/>
<path fill="#E94F4A" opacity="1.000000" stroke="none" 
	d="
M485.734375,365.048798 
	C483.347260,364.356537 483.409393,363.097504 484.663147,361.775391 
	C485.485565,360.908051 486.570831,361.206329 487.230743,362.032410 
	C488.416565,363.516693 487.407501,364.359222 485.734375,365.048798 
z"/>
<path fill="#F7ECE5" opacity="1.000000" stroke="none" 
	d="
M432.777313,155.588028 
	C433.539734,160.595261 434.413544,165.169800 433.576111,169.865967 
	C433.153107,172.237885 432.409302,173.666245 429.550873,173.725449 
	C417.082642,173.983719 404.621918,174.233292 392.170990,173.252609 
	C390.644897,173.132416 389.471802,173.086761 388.914490,171.067291 
	C385.763947,159.650925 391.541290,143.955368 401.452118,137.538483 
	C408.642120,132.883255 417.070007,133.759048 423.834625,139.878296 
	C428.422424,144.028458 431.128387,149.272568 432.777313,155.588028 
z"/>
<path fill="#F7ECE5" opacity="1.000000" stroke="none" 
	d="
M440.948517,168.220688 
	C442.220459,158.311264 446.073456,150.214157 453.936829,144.550064 
	C463.836639,137.419144 475.480682,139.978683 481.734772,150.459534 
	C484.413177,154.948151 485.831329,159.840759 486.173340,165.086990 
	C486.307983,167.152374 485.688782,168.063217 483.633881,168.449753 
	C470.387146,170.941498 456.974091,171.910172 443.571136,173.001511 
	C439.699432,173.316772 440.993286,170.606201 440.948517,168.220688 
z"/>
<path fill="#F7ECE5" opacity="1.000000" stroke="none" 
	d="
M340.792755,166.189392 
	C336.198975,165.464966 335.796692,163.183578 336.768555,159.373932 
	C339.994995,146.726059 348.677246,139.509354 359.559998,140.890686 
	C364.796112,141.555313 368.904694,144.304993 372.319977,148.085022 
	C377.744934,154.089417 380.445801,161.330002 381.466736,169.283890 
	C381.738892,171.404388 381.730438,172.977646 378.858093,172.637817 
	C366.189941,171.139099 353.177338,171.713379 340.792755,166.189392 
z"/>
<path fill="#F6E4DD" opacity="1.000000" stroke="none" 
	d="
M309.063538,208.975647 
	C326.317230,216.616989 343.412445,223.371414 362.029785,225.515656 
	C374.732422,226.978653 386.860107,224.192490 399.043488,221.554428 
	C409.368530,219.318741 419.695099,217.935165 430.209869,220.075409 
	C431.513977,220.340866 432.830566,220.554382 434.119598,220.878632 
	C434.524902,220.980591 434.858917,221.365936 436.226593,222.319519 
	C419.536102,220.386444 404.897705,224.951797 390.140961,228.941055 
	C371.565399,233.962708 353.573242,231.051941 335.833344,224.686890 
	C323.223755,220.162628 311.774231,213.400482 300.240326,206.773712 
	C299.675110,206.448990 299.066223,206.200348 298.801361,205.520004 
	C302.655487,205.498901 305.505371,207.652451 309.063538,208.975647 
z"/>
<path fill="#F6E3DC" opacity="1.000000" stroke="none" 
	d="
M307.853455,165.424469 
	C321.384430,165.938797 333.900604,169.857376 346.242096,174.447083 
	C362.022369,180.315659 377.976624,185.331451 394.944122,186.537262 
	C400.645081,186.942383 406.232941,186.273041 411.871948,186.097397 
	C414.319092,186.021179 416.767853,185.547256 420.255096,186.521729 
	C408.607971,190.613571 397.583069,191.426178 386.294891,190.631760 
	C369.071808,189.419662 353.289307,183.241837 337.624573,176.697311 
	C328.248657,172.780151 318.815704,169.115601 308.455811,166.958466 
	C307.696289,166.562546 307.526306,166.163223 307.853455,165.424469 
z"/>
<path fill="#F6E4DD" opacity="1.000000" stroke="none" 
	d="
M501.747650,174.848801 
	C508.694366,172.149277 515.138550,169.263412 521.562073,166.575760 
	C491.016083,189.621872 455.865906,195.565201 418.678101,193.799805 
	C446.816742,190.103363 474.587921,184.709152 501.747650,174.848801 
z"/>
<path fill="#F6E1DA" opacity="1.000000" stroke="none" 
	d="
M359.869873,243.109802 
	C344.338074,240.762741 330.539337,235.028244 317.523895,226.935806 
	C348.139557,237.286682 379.523346,241.772430 411.779999,240.223846 
	C394.837799,245.437149 377.669281,246.026306 359.869873,243.109802 
z"/>
<path fill="#F6E2DB" opacity="1.000000" stroke="none" 
	d="
M487.748474,230.805984 
	C492.523499,229.356369 496.915924,228.026443 502.145142,226.443161 
	C490.464417,239.623291 435.184601,252.072586 412.582703,246.524994 
	C422.180328,245.101303 430.357666,243.838974 438.550507,242.686859 
	C446.779205,241.529709 454.898651,239.876221 462.962830,237.873413 
	C471.179199,235.832809 479.361633,233.699249 487.748474,230.805984 
z"/>
<path fill="#F6E3DC" opacity="1.000000" stroke="none" 
	d="
M448.544128,217.397644 
	C440.612122,215.198013 433.266327,212.131607 426.044373,208.684021 
	C417.287689,204.503815 407.824768,203.531906 398.272430,203.717529 
	C383.654480,204.001556 370.214569,199.988724 357.141785,193.260101 
	C359.562500,192.315948 361.422913,193.397171 363.210602,194.087387 
	C375.614136,198.876465 388.524048,199.954483 401.563629,198.747711 
	C411.968414,197.784790 421.480927,200.055969 430.282379,205.167404 
	C436.646973,208.863647 443.422852,212.026596 448.544128,217.397644 
z"/>
<path fill="#F6DFD9" opacity="1.000000" stroke="none" 
	d="
M512.934570,194.922272 
	C497.809448,198.985672 483.300079,204.119583 467.718445,203.630051 
	C460.953674,203.417511 454.287201,202.671616 448.142792,199.195206 
	C476.115814,202.340057 502.107239,189.570740 529.790466,189.887863 
	C524.304565,191.538666 518.818726,193.189468 512.934570,194.922272 
z"/>
<path fill="#F6E2DB" opacity="1.000000" stroke="none" 
	d="
M404.550018,209.881500 
	C393.790680,217.430588 381.419952,219.246780 368.426971,217.397308 
	C358.592102,215.997360 348.953400,213.315979 337.784546,212.937958 
	C345.290710,209.762604 351.968414,210.066727 358.601410,210.859116 
	C373.850433,212.680756 389.034912,212.910233 404.550018,209.881500 
z"/>
<path fill="#F6E3DC" opacity="1.000000" stroke="none" 
	d="
M447.709351,232.858566 
	C432.506500,234.608597 417.696930,233.859909 402.679535,234.031525 
	C409.057892,229.222153 443.394318,225.779114 470.362549,227.186981 
	C463.097931,231.051682 455.460022,231.289322 447.709351,232.858566 
z"/>
<path fill="#F6E5DE" opacity="1.000000" stroke="none" 
	d="
M295.387329,187.621429 
	C314.150024,194.864456 332.724396,201.266464 352.843323,201.435410 
	C337.179810,209.351425 303.525085,200.313599 289.875885,186.216843 
	C291.890320,185.496185 293.328430,187.042511 295.387329,187.621429 
z"/>
<path fill="#F6E4DD" opacity="1.000000" stroke="none" 
	d="
M501.372101,218.970551 
	C488.281067,223.368759 476.019226,220.875961 464.109650,215.957504 
	C456.789246,212.934296 449.757996,209.210800 441.790131,205.417664 
	C447.526031,204.272903 451.922913,206.124069 456.297668,207.598724 
	C470.941803,212.535034 485.423279,218.111420 501.243011,217.900009 
	C501.395111,217.897964 501.655853,217.985275 501.680756,218.079651 
	C501.744293,218.320816 501.703156,218.589569 501.372101,218.970551 
z"/>
<path fill="#F6E3DC" opacity="1.000000" stroke="none" 
	d="
M304.574280,183.492981 
	C297.225555,180.449921 291.226654,176.198288 286.549469,169.910950 
	C303.614685,181.359131 325.462646,180.092987 342.523560,191.612747 
	C329.857269,189.498749 317.134094,187.799530 304.574280,183.492981 
z"/>
<path fill="#F6E2DB" opacity="1.000000" stroke="none" 
	d="
M486.481201,209.893539 
	C500.885712,205.930222 515.206299,202.942429 528.817444,197.542252 
	C530.106567,197.030777 531.692627,196.409958 532.553772,197.401047 
	C533.568237,198.568619 532.038086,199.411423 531.143738,200.019104 
	C517.859558,209.045273 503.075867,212.383286 487.200287,211.487976 
	C486.560608,211.451920 485.932770,211.134872 485.310242,210.917831 
	C485.169800,210.868866 485.074493,210.690384 484.958405,210.571533 
	C485.347717,210.363190 485.737030,210.154846 486.481201,209.893539 
z"/>
<path fill="#F6E1DA" opacity="1.000000" stroke="none" 
	d="
M499.435974,187.092407 
	C508.354279,181.590393 518.870422,178.846527 528.420471,173.930573 
	C528.726868,173.772812 529.326904,174.185486 530.551270,174.573425 
	C521.655518,183.016541 511.454224,186.750519 499.435974,187.092407 
z"/>
<path fill="#F0A09A" opacity="1.000000" stroke="none" 
	d="
M307.684967,165.085205 
	C308.076233,165.558563 308.045990,165.936249 308.045868,166.596741 
	C305.738159,166.492874 303.400360,166.106201 301.062531,165.719528 
	C301.086426,165.476196 301.110321,165.232864 301.134247,164.989532 
	C303.177307,164.989532 305.220398,164.989532 307.684967,165.085205 
z"/>
<path fill="#F6E4DD" opacity="1.000000" stroke="none" 
	d="
M297.116211,204.914642 
	C296.029755,204.344559 296.712494,204.176407 297.086090,204.172897 
	C297.478516,204.169220 298.122284,204.323456 297.116211,204.914642 
z"/>
<path fill="#F6E2DB" opacity="1.000000" stroke="none" 
	d="
M405.001465,210.012665 
	C405.294586,209.786972 405.561127,209.526657 405.860474,209.312042 
	C405.886505,209.293396 406.128448,209.575867 406.270111,209.718445 
	C405.997986,209.799637 405.725891,209.880829 405.198059,209.956223 
	C404.942322,209.950409 404.983643,209.990189 405.001465,210.012665 
z"/>
<path fill="#F6E5DE" opacity="1.000000" stroke="none" 
	d="
M288.741272,185.667267 
	C288.437164,185.712677 288.199005,185.537308 288.221436,185.492477 
	C288.446960,185.042191 288.700806,185.056213 288.741272,185.667267 
z"/>
<path fill="#F6E1DA" opacity="1.000000" stroke="none" 
	d="
M498.979919,186.964172 
	C498.966248,186.946213 498.830688,187.335403 498.830688,187.335403 
	C498.830688,187.335403 498.839233,187.104980 498.935059,187.055817 
	C499.030884,187.006638 498.993591,186.982132 498.979919,186.964172 
z"/>
<path fill="#F7EEE7" opacity="1.000000" stroke="none" 
	d="
M537.354370,310.698486 
	C537.588196,310.936859 537.626831,311.337860 537.665466,311.738861 
	C537.451660,311.727386 537.237915,311.715881 536.909058,311.459351 
	C536.915649,311.096558 537.037415,310.978821 537.354370,310.698486 
z"/>
<path fill="#F6E5DE" opacity="1.000000" stroke="none" 
	d="
M472.557343,303.121338 
	C474.773529,302.826385 476.556793,302.642822 478.296936,303.571350 
	C480.270905,304.624634 481.353302,306.244415 481.163940,308.392242 
	C480.932983,311.012146 478.642975,310.503815 476.927734,310.726257 
	C476.107971,310.832520 475.242615,310.953705 474.446655,310.805786 
	C472.310944,310.408813 469.081940,312.401794 468.222412,309.896423 
	C467.272186,307.126678 469.298676,304.560791 472.557343,303.121338 
z"/>
<path fill="#F6E5DE" opacity="1.000000" stroke="none" 
	d="
M231.805328,307.492493 
	C234.637192,307.462311 238.050995,305.703705 238.997223,309.155365 
	C239.904144,312.463776 237.557877,314.891632 234.341309,315.738678 
	C231.534760,316.477814 228.243073,316.518799 227.197433,313.184265 
	C226.233078,310.108917 228.446808,308.310455 231.805328,307.492493 
z"/>
<path fill="#F6E5DE" opacity="1.000000" stroke="none" 
	d="
M569.483276,302.323059 
	C568.597595,298.505737 569.961365,295.806061 573.249695,294.452087 
	C575.621643,293.475433 578.174683,293.577332 580.269531,295.439117 
	C581.562378,296.588226 582.445740,298.041656 581.985535,299.840149 
	C581.561279,301.497955 579.910889,301.347382 578.692505,301.534698 
	C575.745056,301.987885 572.765564,302.233215 569.483276,302.323059 
z"/>
<path fill="#F6E5DE" opacity="1.000000" stroke="none" 
	d="
M341.348541,321.964935 
	C339.164154,325.426575 336.297577,326.132568 332.932037,325.200836 
	C329.695312,324.304779 329.309692,322.074707 330.661102,319.415375 
	C331.757050,317.258728 339.249695,315.250275 341.112244,316.653748 
	C342.910980,318.009064 341.963867,319.910187 341.348541,321.964935 
z"/>
<path fill="#F6E5DE" opacity="1.000000" stroke="none" 
	d="
M352.851135,371.134216 
	C354.951172,373.367065 353.693848,374.445709 351.703979,375.038086 
	C350.529724,375.387665 349.169525,375.058105 349.086243,373.640198 
	C348.954437,371.396454 350.790253,371.229553 352.851135,371.134216 
z"/>
<path fill="#F6E5DE" opacity="1.000000" stroke="none" 
	d="
M402.265015,374.981750 
	C399.942932,372.589294 401.533325,371.743500 403.442780,371.188293 
	C404.341736,370.926849 405.630463,370.781647 405.864929,372.033234 
	C406.327545,374.502777 404.698761,375.103241 402.265015,374.981750 
z"/>
<path fill="#F6DFD9" opacity="1.000000" stroke="none" 
	d="
M364.372253,371.390564 
	C366.169861,371.094238 368.112396,370.484314 367.793518,372.938232 
	C367.534210,374.933685 365.740814,375.652191 364.041107,374.940613 
	C362.048737,374.106476 362.553162,372.718933 364.372253,371.390564 
z"/>
<path fill="#F6DFD9" opacity="1.000000" stroke="none" 
	d="
M319.828369,373.328491 
	C319.852509,374.179230 319.951111,374.760254 319.723480,375.151306 
	C318.509277,377.236969 316.803864,378.415039 314.380188,377.220703 
	C312.264801,376.178223 313.423248,374.611694 314.222839,373.477112 
	C315.774445,371.275482 317.642334,370.175629 319.828369,373.328491 
z"/>
<path fill="#F6DFD9" opacity="1.000000" stroke="none" 
	d="
M465.671234,374.076416 
	C465.481476,374.889496 465.396393,375.435913 465.089447,375.790100 
	C463.536743,377.581940 461.591705,378.774933 459.612366,376.771667 
	C458.045929,375.186310 459.646851,373.567871 460.770264,372.536621 
	C462.759430,370.710693 464.650970,370.795593 465.671234,374.076416 
z"/>
<path fill="#F6DFD9" opacity="1.000000" stroke="none" 
	d="
M448.004761,371.155945 
	C450.264587,373.004852 448.303009,373.243530 447.285461,373.650574 
	C446.588837,373.929291 445.451141,373.947906 445.346252,372.935150 
	C445.189362,371.419952 446.568573,371.352875 448.004761,371.155945 
z"/>
<path fill="#F7EEE7" opacity="1.000000" stroke="none" 
	d="
M445.792725,376.130066 
	C447.282318,376.051117 448.397644,376.141663 450.110504,376.280762 
	C448.061615,378.324829 446.679382,378.881348 445.792725,376.130066 
z"/>
<path fill="#F6DFD9" opacity="1.000000" stroke="none" 
	d="
M505.990631,373.778992 
	C503.851074,373.404633 503.817017,372.558289 505.195251,371.600891 
	C506.197815,370.904449 507.703979,370.588104 508.276459,371.747223 
	C509.089844,373.394135 507.237915,373.302704 505.990631,373.778992 
z"/>
<path fill="#F6E1DA" opacity="1.000000" stroke="none" 
	d="
M338.694397,371.449158 
	C341.341553,372.343658 341.665436,374.020905 340.886414,375.960785 
	C340.254303,377.534760 338.863831,378.121277 337.204895,377.812256 
	C335.695496,377.531097 334.910431,376.507446 334.864838,375.002777 
	C334.794037,372.665375 335.595459,371.075378 338.694397,371.449158 
z"/>
</svg>